<svg width="64" height="64" xmlns="http://www.w3.org/2000/svg"><path d="m32.00434,0.08333c-17.60125,0 -31.921,14.31975 -31.921,31.921c0,8.87078 3.73708,17.41439 10.25289,23.44041c0.52682,0.48719 1.34876,0.45493 1.83595,-0.07167c0.48719,-0.52703 0.45515,-1.34876 -0.07189,-1.83595c-5.98574,-5.53579 -9.4186,-13.38412 -9.4186,-21.53278c0,-16.16848 13.15417,-29.32265 29.32265,-29.32265s29.32265,13.15417 29.32265,29.32265s-13.15417,29.32265 -29.32265,29.32265c-0.71736,0 -1.29918,0.58181 -1.29918,1.29918s0.58181,1.29918 1.29918,1.29918c17.60147,0 31.921,-14.31975 31.921,-31.921s-14.31953,-31.921 -31.921,-31.921z"/></svg>